<svg xmlns="http://www.w3.org/2000/svg" xmlns:xlink="http://www.w3.org/1999/xlink" width="500" zoomAndPan="magnify" viewBox="0 0 375 374.999991" height="500" preserveAspectRatio="xMidYMid meet" version="1.0"><defs><g/><clipPath id="d46a4361fa"><path d="M 304 240 L 328 240 L 328 264 L 304 264 Z M 304 240 " clip-rule="nonzero"/></clipPath><clipPath id="5f90e0a630"><path d="M 361.238281 207.53125 L 334.894531 292.804688 L 249.621094 266.460938 L 275.964844 181.1875 Z M 361.238281 207.53125 " clip-rule="nonzero"/></clipPath><clipPath id="1938eb0a36"><path d="M 361.238281 207.53125 L 334.894531 292.804688 L 249.621094 266.460938 L 275.964844 181.1875 Z M 361.238281 207.53125 " clip-rule="nonzero"/></clipPath><clipPath id="f193700617"><path d="M 303 233 L 317 233 L 317 248 L 303 248 Z M 303 233 " clip-rule="nonzero"/></clipPath><clipPath id="a9b6d6358b"><path d="M 361.238281 207.53125 L 334.894531 292.804688 L 249.621094 266.460938 L 275.964844 181.1875 Z M 361.238281 207.53125 " clip-rule="nonzero"/></clipPath><clipPath id="df8e99b666"><path d="M 361.238281 207.53125 L 334.894531 292.804688 L 249.621094 266.460938 L 275.964844 181.1875 Z M 361.238281 207.53125 " clip-rule="nonzero"/></clipPath><clipPath id="1c55277f4f"><path d="M 295 250 L 311 250 L 311 266 L 295 266 Z M 295 250 " clip-rule="nonzero"/></clipPath><clipPath id="b393d84d18"><path d="M 361.238281 207.53125 L 334.894531 292.804688 L 249.621094 266.460938 L 275.964844 181.1875 Z M 361.238281 207.53125 " clip-rule="nonzero"/></clipPath><clipPath id="f71edebaf0"><path d="M 361.238281 207.53125 L 334.894531 292.804688 L 249.621094 266.460938 L 275.964844 181.1875 Z M 361.238281 207.53125 " clip-rule="nonzero"/></clipPath><clipPath id="c911ffd990"><path d="M 273 183 L 344 183 L 344 282 L 273 282 Z M 273 183 " clip-rule="nonzero"/></clipPath><clipPath id="35781617b8"><path d="M 361.238281 207.53125 L 334.894531 292.804688 L 249.621094 266.460938 L 275.964844 181.1875 Z M 361.238281 207.53125 " clip-rule="nonzero"/></clipPath><clipPath id="32bfc78832"><path d="M 361.238281 207.53125 L 334.894531 292.804688 L 249.621094 266.460938 L 275.964844 181.1875 Z M 361.238281 207.53125 " clip-rule="nonzero"/></clipPath><clipPath id="51fe58964d"><path d="M 94.027344 120.792969 L 117 120.792969 L 117 201.792969 L 94.027344 201.792969 Z M 94.027344 120.792969 " clip-rule="nonzero"/></clipPath></defs><g clip-path="url(#d46a4361fa)"><g clip-path="url(#5f90e0a630)"><g clip-path="url(#1938eb0a36)"><path fill="#000000" d="M 313.726562 257.035156 L 312.496094 263.808594 L 315.296875 257.523438 C 316.289062 255.304688 318.667969 254.046875 321.058594 254.484375 L 327.832031 255.714844 L 321.542969 252.910156 C 319.324219 251.917969 318.070312 249.542969 318.503906 247.152344 L 319.734375 240.378906 L 316.929688 246.664062 C 315.941406 248.882812 313.5625 250.140625 311.171875 249.703125 L 304.398438 248.472656 L 310.683594 251.277344 C 312.90625 252.269531 314.160156 254.644531 313.726562 257.035156 " fill-opacity="1" fill-rule="nonzero"/></g></g></g><g clip-path="url(#f193700617)"><g clip-path="url(#a9b6d6358b)"><g clip-path="url(#df8e99b666)"><path fill="#000000" d="M 313.003906 241.808594 L 316.789062 242.496094 L 313.273438 240.929688 C 312.035156 240.378906 311.332031 239.046875 311.574219 237.710938 L 312.261719 233.925781 L 310.695312 237.441406 C 310.140625 238.679688 308.8125 239.382812 307.476562 239.140625 L 303.6875 238.449219 L 307.203125 240.019531 C 308.445312 240.570312 309.148438 241.902344 308.902344 243.238281 L 308.214844 247.023438 L 309.78125 243.507812 C 310.335938 242.269531 311.664062 241.566406 313.003906 241.808594 " fill-opacity="1" fill-rule="nonzero"/></g></g></g><g clip-path="url(#1c55277f4f)"><g clip-path="url(#b393d84d18)"><g clip-path="url(#f71edebaf0)"><path fill="#000000" d="M 306.003906 259.441406 L 310.21875 260.207031 L 306.308594 258.460938 C 304.925781 257.847656 304.144531 256.367188 304.417969 254.878906 L 305.183594 250.667969 L 303.4375 254.578125 C 302.824219 255.957031 301.34375 256.738281 299.855469 256.46875 L 295.644531 255.703125 L 299.554688 257.445312 C 300.933594 258.0625 301.714844 259.542969 301.445312 261.027344 L 300.679688 265.242188 L 302.421875 261.332031 C 303.039062 259.949219 304.519531 259.167969 306.003906 259.441406 " fill-opacity="1" fill-rule="nonzero"/></g></g></g><g clip-path="url(#c911ffd990)"><g clip-path="url(#35781617b8)"><g clip-path="url(#32bfc78832)"><path fill="#000000" d="M 290.59375 263.433594 C 284.070312 251.078125 288.8125 235.714844 301.171875 229.191406 C 313.53125 222.664062 328.894531 227.410156 335.417969 239.769531 C 338.679688 245.949219 339.125 252.878906 337.207031 259.078125 C 335.292969 265.28125 331.015625 270.75 324.835938 274.015625 C 312.480469 280.539062 297.117188 275.792969 290.59375 263.433594 Z M 339.667969 237.527344 C 332.59375 224.125 316.785156 218.253906 302.910156 223.195312 L 286.1875 185.871094 C 286.164062 185.824219 286.136719 185.789062 286.113281 185.746094 C 286.09375 185.703125 286.085938 185.660156 286.0625 185.621094 C 286.019531 185.535156 285.957031 185.46875 285.90625 185.386719 C 285.824219 185.253906 285.746094 185.121094 285.652344 185 C 285.566406 184.890625 285.472656 184.792969 285.382812 184.695312 C 285.28125 184.585938 285.183594 184.480469 285.074219 184.386719 C 284.96875 184.296875 284.855469 184.214844 284.742188 184.132812 C 284.628906 184.054688 284.519531 183.972656 284.398438 183.90625 C 284.277344 183.835938 284.148438 183.777344 284.023438 183.71875 C 283.898438 183.664062 283.773438 183.605469 283.644531 183.5625 C 283.515625 183.515625 283.378906 183.484375 283.246094 183.453125 C 283.109375 183.417969 282.976562 183.386719 282.839844 183.367188 C 282.703125 183.347656 282.566406 183.34375 282.429688 183.335938 C 282.289062 183.328125 282.148438 183.324219 282.007812 183.332031 C 281.867188 183.339844 281.730469 183.359375 281.589844 183.382812 C 281.449219 183.402344 281.308594 183.425781 281.167969 183.460938 C 281.03125 183.496094 280.898438 183.546875 280.761719 183.59375 C 280.664062 183.632812 280.566406 183.648438 280.46875 183.691406 C 280.425781 183.710938 280.394531 183.742188 280.351562 183.761719 C 280.308594 183.78125 280.261719 183.792969 280.21875 183.816406 L 275.523438 186.292969 C 275.484375 186.316406 275.453125 186.347656 275.414062 186.367188 C 275.371094 186.390625 275.324219 186.40625 275.28125 186.433594 C 275.179688 186.496094 275.09375 186.574219 275 186.644531 C 274.90625 186.710938 274.8125 186.773438 274.726562 186.847656 C 274.597656 186.957031 274.484375 187.082031 274.371094 187.203125 C 274.300781 187.28125 274.222656 187.351562 274.160156 187.433594 C 274.042969 187.582031 273.945312 187.738281 273.851562 187.894531 C 273.808594 187.96875 273.757812 188.03125 273.71875 188.105469 C 273.59375 188.339844 273.488281 188.585938 273.410156 188.839844 C 273.410156 188.839844 273.410156 188.84375 273.410156 188.84375 C 273.324219 189.117188 273.269531 189.402344 273.242188 189.691406 C 273.234375 189.785156 273.242188 189.878906 273.238281 189.96875 C 273.230469 190.167969 273.226562 190.363281 273.246094 190.5625 C 273.257812 190.679688 273.289062 190.792969 273.3125 190.910156 C 273.34375 191.082031 273.375 191.253906 273.425781 191.421875 C 273.46875 191.550781 273.527344 191.671875 273.578125 191.796875 C 273.628906 191.910156 273.660156 192.027344 273.71875 192.136719 C 273.742188 192.179688 273.773438 192.214844 273.796875 192.257812 C 273.820312 192.296875 273.832031 192.339844 273.855469 192.382812 L 295.242188 227.246094 C 289.867188 231.160156 286.085938 236.636719 284.210938 242.707031 C 281.933594 250.082031 282.460938 258.328125 286.34375 265.679688 C 294.105469 280.378906 312.378906 286.027344 327.082031 278.265625 C 341.785156 270.503906 347.429688 252.226562 339.667969 237.527344 " fill-opacity="1" fill-rule="nonzero"/></g></g></g><g fill="#000000" fill-opacity="1"><g transform="translate(37.500002, 184.93249)"><g><path d="M 5.15625 0 L 5.15625 -73.890625 L 20.359375 -73.890625 L 20.359375 -39.4375 L 20.53125 -39.4375 C 24.488281 -43.382812 28.703125 -45.359375 33.171875 -45.359375 C 35.347656 -45.359375 37.507812 -45.070312 39.65625 -44.5 C 41.800781 -43.925781 43.859375 -43.039062 45.828125 -41.84375 C 47.804688 -40.644531 49.410156 -38.941406 50.640625 -36.734375 C 51.878906 -34.523438 52.5 -31.960938 52.5 -29.046875 L 52.5 0 L 37.296875 0 L 37.296875 -24.921875 C 37.296875 -27.210938 36.5625 -29.21875 35.09375 -30.9375 C 33.632812 -32.65625 31.734375 -33.515625 29.390625 -33.515625 C 27.097656 -33.515625 25.019531 -32.625 23.15625 -30.84375 C 21.289062 -29.070312 20.359375 -27.097656 20.359375 -24.921875 L 20.359375 0 Z M 5.15625 0 "/></g></g></g><g clip-path="url(#51fe58964d)"><path fill="#ef2f20" d="M 116.898438 189.5625 L 108.96875 132.152344 C 108.96875 132.152344 112.503906 125.964844 113.304688 121.628906 C 113.304688 121.628906 112.859375 120.910156 105.472656 120.910156 C 98.082031 120.910156 97.636719 121.628906 97.636719 121.628906 C 98.445312 125.964844 101.976562 132.152344 101.976562 132.152344 L 94.042969 189.5625 C 94.027344 189.648438 94.058594 189.746094 94.125 189.8125 L 105.246094 201.5625 C 105.367188 201.691406 105.570312 201.691406 105.691406 201.5625 L 116.816406 189.820312 C 116.882812 189.746094 116.914062 189.65625 116.898438 189.5625 Z M 116.898438 189.5625 " fill-opacity="1" fill-rule="nonzero"/></g><path fill="#bf2025" d="M 105.472656 133.28125 L 105.480469 133.28125 C 106.84375 133.265625 107.984375 133.144531 109.074219 132.910156 L 108.96875 132.140625 C 108.054688 132.34375 106.964844 132.480469 105.472656 132.507812 C 103.976562 132.488281 102.886719 132.34375 101.976562 132.140625 L 101.871094 132.910156 C 102.953125 133.144531 104.097656 133.257812 105.464844 133.28125 Z M 105.472656 133.28125 " fill-opacity="1" fill-rule="nonzero"/><g fill="#000000" fill-opacity="1"><g transform="translate(172.593773, 271.579363)"><g><path d="M 5.15625 0 L 5.15625 -73.890625 L 20.359375 -73.890625 L 20.359375 -39.4375 L 20.53125 -39.4375 C 24.488281 -43.382812 28.703125 -45.359375 33.171875 -45.359375 C 35.347656 -45.359375 37.507812 -45.070312 39.65625 -44.5 C 41.800781 -43.925781 43.859375 -43.039062 45.828125 -41.84375 C 47.804688 -40.644531 49.410156 -38.941406 50.640625 -36.734375 C 51.878906 -34.523438 52.5 -31.960938 52.5 -29.046875 L 52.5 0 L 37.296875 0 L 37.296875 -24.921875 C 37.296875 -27.210938 36.5625 -29.21875 35.09375 -30.9375 C 33.632812 -32.65625 31.734375 -33.515625 29.390625 -33.515625 C 27.097656 -33.515625 25.019531 -32.625 23.15625 -30.84375 C 21.289062 -29.070312 20.359375 -27.097656 20.359375 -24.921875 L 20.359375 0 Z M 5.15625 0 "/></g></g></g><g fill="#000000" fill-opacity="1"><g transform="translate(225.092114, 271.579363)"><g><path d="M 19.5 -44.078125 L 19.5 -23.109375 C 19.5 -18.753906 20.15625 -15.660156 21.46875 -13.828125 C 22.789062 -11.992188 25.023438 -11.078125 28.171875 -11.078125 C 31.328125 -11.078125 33.5625 -11.992188 34.875 -13.828125 C 36.195312 -15.660156 36.859375 -18.753906 36.859375 -23.109375 L 36.859375 -44.078125 L 52.0625 -44.078125 L 52.0625 -19.421875 C 52.0625 -12.085938 50.15625 -6.800781 46.34375 -3.5625 C 42.539062 -0.332031 36.484375 1.28125 28.171875 1.28125 C 19.867188 1.28125 13.8125 -0.332031 10 -3.5625 C 6.195312 -6.800781 4.296875 -12.085938 4.296875 -19.421875 L 4.296875 -44.078125 Z M 19.5 -44.078125 "/></g></g></g><g fill="#000000" fill-opacity="1"><g transform="translate(116.916194, 184.93249)"><g><path d="M 5.15625 0 L 5.15625 -44.078125 L 20.359375 -44.078125 L 20.359375 -37.71875 L 20.53125 -37.71875 C 20.644531 -37.945312 20.832031 -38.234375 21.09375 -38.578125 C 21.351562 -38.921875 21.910156 -39.519531 22.765625 -40.375 C 23.628906 -41.238281 24.546875 -42.015625 25.515625 -42.703125 C 26.492188 -43.390625 27.753906 -44.003906 29.296875 -44.546875 C 30.847656 -45.085938 32.425781 -45.359375 34.03125 -45.359375 C 35.6875 -45.359375 37.316406 -45.128906 38.921875 -44.671875 C 40.523438 -44.210938 41.703125 -43.753906 42.453125 -43.296875 L 43.640625 -42.625 L 37.296875 -29.734375 C 35.398438 -31.335938 32.765625 -32.140625 29.390625 -32.140625 C 27.554688 -32.140625 25.976562 -31.738281 24.65625 -30.9375 C 23.34375 -30.132812 22.410156 -29.160156 21.859375 -28.015625 C 21.316406 -26.867188 20.929688 -25.894531 20.703125 -25.09375 C 20.472656 -24.289062 20.359375 -23.660156 20.359375 -23.203125 L 20.359375 0 Z M 5.15625 0 "/></g></g></g><g fill="#000000" fill-opacity="1"><g transform="translate(155.409246, 184.93249)"><g><path d="M 49.75 -19.9375 L 17.78125 -19.9375 C 17.78125 -16.84375 18.78125 -14.550781 20.78125 -13.0625 C 22.789062 -11.570312 24.972656 -10.828125 27.328125 -10.828125 C 29.785156 -10.828125 31.726562 -11.15625 33.15625 -11.8125 C 34.59375 -12.46875 36.226562 -13.769531 38.0625 -15.71875 L 49.0625 -10.21875 C 44.476562 -2.550781 36.859375 1.28125 26.203125 1.28125 C 19.554688 1.28125 13.851562 -0.992188 9.09375 -5.546875 C 4.34375 -10.097656 1.96875 -15.582031 1.96875 -22 C 1.96875 -28.414062 4.34375 -33.910156 9.09375 -38.484375 C 13.851562 -43.066406 19.554688 -45.359375 26.203125 -45.359375 C 33.191406 -45.359375 38.875 -43.335938 43.25 -39.296875 C 47.632812 -35.265625 49.828125 -29.5 49.828125 -22 C 49.828125 -20.96875 49.800781 -20.28125 49.75 -19.9375 Z M 18.21875 -28.359375 L 34.96875 -28.359375 C 34.625 -30.648438 33.722656 -32.410156 32.265625 -33.640625 C 30.804688 -34.867188 28.929688 -35.484375 26.640625 -35.484375 C 24.117188 -35.484375 22.113281 -34.820312 20.625 -33.5 C 19.132812 -32.1875 18.332031 -30.472656 18.21875 -28.359375 Z M 18.21875 -28.359375 "/></g></g></g></svg>